<svg version="1.1" xmlns="http://www.w3.org/2000/svg" style="display: block;" viewBox="0 0 2000 1996" width="500" height="499" preserveAspectRatio="none">
<path transform="translate(0,0)" fill="rgb(32,34,47)" d="M 454.334 0 L 1547.77 0 C 1560.56 4.31941 1578.8 2.62824 1592.47 3.55182 C 1795.97 17.3091 1967.82 180.879 1990.52 383.936 C 1999.96 468.331 1997.66 557.78 1997.25 643.48 L 1996.72 956.418 L 1996.99 1361.91 L 1997.01 1499.36 C 1996.94 1519.87 1997.74 1545.14 1996.62 1565.21 C 1994.54 1605.9 1987.63 1646.2 1976.04 1685.26 C 1922.78 1859.46 1769.75 1972.98 1593.3 1992.88 C 1583.4 1994 1574.08 1993.27 1564.42 1996 L 439.343 1996 C 431.632 1993.08 416.47 1993.25 407.673 1992.53 C 198.84 1975.4 25.0808 1811.55 3.70449 1601.67 C 2.70414 1591.85 3.11934 1575.13 0 1566.71 L 0 463.559 C 3.38865 454.064 2.55714 423.254 3.71502 410.495 C 9.68233 344.739 23.8851 290.303 54.9195 232.27 C 83.7463 176.123 124.582 130.518 174.269 92.0503 C 228.355 50.1773 292.807 22.0196 360.26 10.0566 C 375.493 7.35511 391.56 5.22874 406.987 3.31795 C 420.787 1.60883 441.127 4.96333 454.334 0 z"/>
<path transform="translate(0,0)" fill="rgb(54,132,155)" d="M 1179.01 426.422 C 1179.95 426.371 1180.88 426.332 1181.82 426.306 C 1410.42 418.856 1468.89 788.809 1503.2 954.781 C 1520.63 1035.05 1535.85 1116.15 1563.41 1193.57 C 1586.7 1263.95 1639.42 1277.2 1670.02 1200.15 C 1708.87 1102.29 1709.9 961.619 1847.31 955.461 C 1847.24 980.577 1847.3 1007.75 1848.26 1032.76 C 1823.76 1037.62 1811.19 1043.33 1798.37 1066.17 C 1786.41 1087.49 1780.61 1111.17 1773.76 1134.49 C 1752.78 1205.98 1733.22 1291.14 1658.54 1325.12 C 1635.22 1335.64 1598.35 1334.06 1575.24 1324.35 C 1530.46 1305.4 1507.5 1266.15 1490.65 1222.65 C 1445.01 1104.79 1430.98 976.291 1400.6 853.969 C 1385.56 793.452 1374.05 732.647 1350.33 674.686 C 1325.28 613.505 1294.93 545.23 1231.62 515.598 C 1207.17 504.622 1166.93 504.157 1142.22 515.033 C 1075.89 544.221 1045.1 611.172 1019.02 673.617 C 1000.95 717.305 986.645 775.889 974.984 822.31 C 962.203 873.878 950.516 925.711 939.932 977.775 C 936.568 994.268 933.937 1010.88 930.496 1027.37 C 916.73 1095.06 900.9 1162.3 883.027 1229.02 C 848.79 1356.34 791.973 1552.51 621.313 1525.95 C 489.414 1505.42 445.177 1344.12 426.206 1232.3 C 420.396 1198.06 413.162 1155.25 412.899 1120.64 C 439.536 1120.13 466.178 1119.89 492.82 1119.92 L 493.084 1125.74 C 497.458 1213.02 523.028 1364.78 589.904 1427.26 C 608.765 1444.87 628.938 1450.44 654.371 1449.57 C 691.876 1448.29 719.118 1420.22 737.923 1389.1 C 772.748 1331.49 794.11 1258.06 811.484 1193.13 C 816.541 1174.24 821.404 1148.12 826.069 1128.09 C 840.175 1067.67 853.401 1007.04 865.742 946.239 C 880.322 875.921 894.586 805.895 914.412 736.784 C 937.241 657.206 970.524 564.663 1026.45 502.093 C 1068.33 455.228 1115.91 429.941 1179.01 426.422 z"/>
<path transform="translate(0,0)" fill="rgb(54,132,155)" d="M 1083.1 820.121 C 1101.33 818.798 1117.42 833.484 1132.48 842.99 L 1213.3 894.441 L 1307.96 954.541 C 1324.74 965.299 1355.73 976.958 1350.63 1001.57 C 1349.49 1007.15 1346.67 1012.24 1342.55 1016.18 C 1335.87 1022.49 1318.51 1032.77 1309.86 1038.32 L 1240.6 1082.3 C 1206.15 1103.51 1173.28 1126.31 1138.4 1146.86 C 1125.42 1153.85 1112.59 1165.71 1099.18 1171.45 C 1075.21 1181.72 1063.03 1159.54 1062.77 1139.02 C 1062.21 1095.61 1062.74 1052.67 1062.68 1009.46 L 1062.68 904.679 C 1062.74 886.937 1062.62 869.171 1063.16 851.439 C 1063.67 834.879 1068.01 826.987 1083.1 820.121 z"/>
<path transform="translate(0,0)" fill="rgb(54,132,155)" d="M 594.003 652.431 C 600.672 656.929 608.002 660.765 614.719 665.292 C 716.187 733.688 775.134 847.016 782.141 968.646 C 787.467 1061.1 752.722 1171.95 689.176 1241.32 L 681.441 1234.95 C 664.855 1219.88 647.925 1204.16 631.086 1189.46 C 643.165 1174.48 658.045 1153.85 667.125 1137.11 C 708.29 1061.22 712.321 968.084 687.766 886.283 C 668.393 821.743 614.731 753.753 555.802 721.482 C 566.608 698.924 581.301 674.296 594.003 652.431 z"/>
<path transform="translate(0,0)" fill="rgb(54,132,155)" d="M 306.398 833.403 C 334.783 829.4 385.57 843.368 408.993 860.248 C 454.977 893.388 468.906 927.045 479.381 979.089 L 400.56 980.162 C 387.737 939.207 367.304 918.908 325.224 911.124 C 310.878 909.495 291.672 913.68 278.541 919.618 C 251.064 932.043 240.623 952.977 230.612 979.863 C 211.512 977.698 173.028 979.277 151.632 978.725 C 158.891 944.256 166.063 921.012 188.632 893.235 C 220.344 854.206 257.735 838.666 306.398 833.403 z"/>
<path transform="translate(0,0)" fill="rgb(54,132,155)" d="M 521.491 784.393 C 528.402 786.156 541.574 796.065 547.198 800.692 C 596.41 841.66 627.108 900.674 632.4 964.487 C 638.45 1030.2 621.976 1091.57 579.484 1142.65 C 576.693 1140.02 573.596 1137.34 570.728 1134.76 C 555.56 1120.15 538.175 1103.67 522.21 1089.99 C 544.225 1055.91 555.025 1033.76 555.185 991.805 C 555.401 935.27 532.157 883.495 483.52 852.494 C 497.064 830.566 506.195 807.251 521.491 784.393 z"/>
<path transform="translate(0,0)" fill="rgb(33,188,106)" d="M 277.187 983.254 C 303.04 982.937 328.894 982.874 354.748 983.065 L 354.225 1086.9 L 277.658 1087.22 C 277.029 1074.47 277.543 1060.45 277.527 1047.5 L 277.187 983.254 z"/>
<path transform="translate(0,0)" fill="rgb(254,197,12)" d="M 406.05 1014.82 C 431.637 1014.66 457.225 1014.79 482.809 1015.2 C 484.161 1023.76 489.367 1082.73 486.938 1086.32 C 461.167 1086.7 435.393 1086.77 409.621 1086.51 L 406.05 1014.82 z"/>
<path transform="translate(0,0)" fill="rgb(230,58,59)" d="M 148.058 1015.43 C 173.99 1014.91 199.929 1014.71 225.866 1014.84 C 225.685 1023.37 226.744 1083.61 224.678 1086.61 C 202.483 1085.62 171.89 1086.64 148.795 1086.47 C 148.399 1062.79 148.153 1039.11 148.058 1015.43 z"/>
<path transform="translate(0,0)" fill="rgb(8,8,25)" d="M 167.743 113.842 C 171.823 114.018 173.789 113.755 177.327 115.829 L 177.619 117.393 L 175.922 119.068 C 172.381 118.955 168.49 119.387 165.629 117.644 L 165.526 116.075 L 167.743 113.842 z"/>
<path transform="translate(0,0)" fill="rgb(8,8,25)" d="M 1848.83 138.494 C 1855.28 139.197 1855.73 140.84 1860.05 146.146 C 1852.77 148.389 1850.33 144.987 1848.83 138.494 z"/>
</svg>
